HIERARCHY
ROOT Hips
{
    OFFSET 0.000000 0.000000 0.000000
    CHANNELS 6 Xposition Yposition Zposition Zrotation Xrotation Yrotation
    JOINT Spine
    {
        OFFSET -0.000000 7.236184 0.000000
        CHANNELS 3 Zrotation Xrotation Yrotation
        JOINT Spine1
        {
            OFFSET -0.000000 20.420147 0.000000
            CHANNELS 3 Zrotation Xrotation Yrotation
            JOINT Neck
            {
                OFFSET -0.000000 20.336288 1.848754
                CHANNELS 3 Zrotation Xrotation Yrotation
                JOINT Head
                {
                    OFFSET -0.000000 12.354461 -1.764923
                    CHANNELS 3 Zrotation Xrotation Yrotation
                    End Site
                    {
                        OFFSET -0.000000 22.061537 0.000000
                    }
                }
            }
            JOINT LeftShoulder
            {
                OFFSET 3.573296 18.396038 -0.314103
                CHANNELS 3 Zrotation Xrotation Yrotation
                JOINT LeftArm
                {
                    OFFSET 10.880760 0.000000 0.000000
                    CHANNELS 3 Zrotation Xrotation Yrotation
                    JOINT LeftForeArm
                    {
                        OFFSET 27.185530 0.000000 0.000000
                        CHANNELS 3 Zrotation Xrotation Yrotation
                        JOINT LeftHand
                        {
                            OFFSET 27.825975 0.000000 0.000000
                            CHANNELS 3 Zrotation Xrotation Yrotation
                            End Site
                            {
                                OFFSET 13.236923 0.000000 0.000000
                            }
                        }
                    }
                }
            }
            JOINT RightShoulder
            {
                OFFSET -3.474926 18.396038 -0.314103
                CHANNELS 3 Zrotation Xrotation Yrotation
                JOINT RightArm
                {
                    OFFSET -10.880760 0.000000 0.000000
                    CHANNELS 3 Zrotation Xrotation Yrotation
                    JOINT RightForeArm
                    {
                        OFFSET -27.185530 0.000000 0.000000
                        CHANNELS 3 Zrotation Xrotation Yrotation
                        JOINT RightHand
                        {
                            OFFSET -27.825975 0.000000 0.000000
                            CHANNELS 3 Zrotation Xrotation Yrotation
                            End Site
                            {
                                OFFSET -13.236923 0.000000 0.000000
                            }
                        }
                    }
                }
            }
        }
    }
    JOINT LeftUpLeg
    {
        OFFSET 8.824615 0.000000 0.000000
        CHANNELS 3 Zrotation Xrotation Yrotation
        JOINT LeftLeg
        {
            OFFSET -0.000000 -35.111282 0.000000
            CHANNELS 3 Zrotation Xrotation Yrotation
            JOINT LeftFoot
            {
                OFFSET -0.000000 -42.324711 0.000000
                CHANNELS 3 Zrotation Xrotation Yrotation
                JOINT LeftToeBase
                {
                    OFFSET -0.000000 -5.735999 13.236923
                    CHANNELS 3 Zrotation Xrotation Yrotation
                    End Site
                    {
                        OFFSET -0.000000 0.000000 3.529846
                    }
                }
            }
        }
    }
    JOINT RightUpLeg
    {
        OFFSET -8.824615 0.000000 0.000000
        CHANNELS 3 Zrotation Xrotation Yrotation
        JOINT RightLeg
        {
            OFFSET -0.000000 -35.111282 0.000000
            CHANNELS 3 Zrotation Xrotation Yrotation
            JOINT RightFoot
            {
                OFFSET -0.000000 -42.324711 0.000000
                CHANNELS 3 Zrotation Xrotation Yrotation
                JOINT RightToeBase
                {
                    OFFSET -0.000000 -5.735999 13.236923
                    CHANNELS 3 Zrotation Xrotation Yrotation
                    End Site
                    {
                        OFFSET -0.000000 0.000000 3.529846
                    }
                }
            }
        }
    }
}
MOTION
Frames:    12
Frame Time:    0.008333
-10.905258    84.774780    97.121338    11.271179    15.398666    -108.538628    -5.391438    -14.217919    3.034796    -4.831959    8.720390    4.076371    3.058076    22.267345    -21.915518    29.284779    -1.529402    -18.259880    2.302127    11.850672    3.962454    -39.938477    39.416542    -28.855747    18.244848    8.839441    -61.645313    -18.679640    16.905790    16.485291    2.535609    17.042788    -5.719810    42.147644    30.712744    25.488955    -16.714907    -8.282462    54.772976    -4.171884    0.462811    -0.975600    13.777931    -18.103676    2.412987    0.376834    29.801451    6.248153    -1.218625    -15.704455    -11.870426    2.554273    0.682205    -2.827764    -1.613777    -30.311188    2.171345    17.805313    39.848053    -15.274458    21.146832    19.844603    -18.195034    -0.900224    -1.570741    0.975788    
-10.892274    84.817680    97.154068    11.242106    15.590412    -108.341812    -5.309767    -14.162334    3.034458    -4.632701    8.702348    4.047247    3.200585    22.399725    -21.995609    29.336634    -1.319434    -18.378540    2.478500    11.691098    3.742523    -39.157219    39.042488    -29.957968    18.596554    8.408710    -63.266220    -19.614588    16.830013    16.983980    2.467274    17.013027    -5.635964    41.973328    30.888027    25.581518    -16.650215    -8.131863    53.901619    -4.341001    0.415188    -0.845218    13.952785    -18.047371    2.391077    0.312986    29.701385    6.187314    -1.166747    -15.617494    -11.926564    2.583522    0.672898    -2.860189    -2.087985    -30.826336    1.825040    18.297323    40.652924    -15.571125    21.518646    20.164223    -17.927334    -0.933911    -1.162965    1.011722    
-10.874965    84.877289    97.183617    11.217577    15.830774    -108.147827    -5.240423    -14.092009    3.015668    -4.375089    8.677282    3.995975    3.367016    22.543161    -22.072588    29.382074    -1.094679    -18.496666    2.686089    11.528878    3.477691    -38.399025    38.690075    -31.029367    19.020864    7.831029    -64.999748    -20.444221    16.719763    17.439692    2.412042    16.972277    -5.549448    41.748104    31.046124    25.696617    -16.574825    -7.954321    52.974174    -4.497416    0.380854    -0.713855    14.186750    -17.964226    2.411586    0.260235    29.563959    6.103480    -1.129823    -15.511232    -12.001772    2.617947    0.666649    -2.898330    -2.646807    -31.417492    1.305720    18.806370    41.607082    -15.830141    21.868553    20.505972    -17.571075    -0.984609    -0.663243    1.065903    
-10.853982    84.952614    97.209503    11.197725    16.118065    -107.955551    -5.182098    -14.008170    2.977969    -4.062398    8.644816    3.922296    3.554644    22.698994    -22.145655    29.420708    -0.856481    -18.613050    2.921614    11.359572    3.172397    -37.657845    38.360798    -32.069534    19.517748    7.104724    -66.832687    -21.156895    16.586775    17.837509    2.369510    16.921658    -5.459742    41.474911    31.180964    25.833082    -16.483660    -7.746604    51.995052    -4.646533    0.362276    -0.582371    14.475108    -17.858543    2.468299    0.221257    29.395210    5.998662    -1.107911    -15.387171    -12.094171    2.656347    0.662704    -2.940859    -3.290034    -32.074871    0.615905    19.325867    42.707714    -16.051172    22.167221    20.834019    -17.144777    -1.049386    -0.110266    1.135159    
-10.830076    85.041977    97.231255    11.183008    16.448914    -107.765282    -5.131703    -13.912728    2.922133    -3.701452    8.605145    3.827297    3.759229    22.867817    -22.213932    29.452671    -0.608394    -18.725904    3.179575    11.178575    2.835149    -36.931419    38.054188    -33.075371    20.077316    6.237742    -68.736946    -21.737801    16.443666    18.160303    2.338881    16.862507    -5.365858    41.161007    31.286053    25.986679    -16.373842    -7.507954    50.974648    -4.794635    0.361602    -0.452475    14.811944    -17.735550    2.553317    0.197150    29.202457    5.878590    -1.100742    -15.247884    -12.202374    2.696758    0.660550    -2.985606    -4.012660    -32.784065    -0.226732    19.851698    43.940865    -16.241283    22.393002    21.114513    -16.677498    -1.122218    0.447342    1.213019    
-10.803777    85.144135    97.248688    11.173899    16.822119    -107.576302    -5.084934    -13.807146    2.849197    -3.297352    8.559080    3.712137    3.977349    23.049982    -22.277353    29.479443    -0.352323    -18.834425    3.456089    10.980432    2.473547    -36.215240    37.765282    -34.051579    20.688135    5.237422    -70.693993    -22.175049    16.301401    18.395988    2.319045    16.795858    -5.266670    40.812531    31.355259    26.153263    -16.242386    -7.237361    49.918629    -4.949887    0.380117    -0.324954    15.194022    -17.599806    2.659753    0.188234    28.991751    5.748543    -1.107838    -15.095224    -12.325739    2.737991    0.659505    -3.031259    -4.814035    -33.534843    -1.200560    20.390203    45.295525    -16.418461    22.535097    21.322212    -16.199938    -1.196090    0.969086    1.291954    
-10.775114    85.259560    97.261940    11.170938    17.242809    -107.385574    -5.036534    -13.691026    2.759610    -2.847859    8.506775    3.576522    4.208987    23.248531    -22.337227    29.502377    -0.087269    -18.939768    3.751084    10.756074    2.088376    -35.499420    37.480881    -35.013889    21.343887    4.098116    -72.714020    -22.458597    16.167868    18.534327    2.308295    16.721832    -5.159945    40.430531    31.383537    26.330465    -16.084908    -6.932424    48.816849    -5.117241    0.417887    -0.198112    15.625516    -17.453203    2.783214    0.193500    28.764650    5.612792    -1.129361    -14.928117    -12.466687    2.779995    0.658983    -3.077760    -5.707130    -34.328682    -2.294382    20.962292    46.777729    -16.611120    22.591524    21.444118    -15.734024    -1.265158    1.435244    1.365702    
-10.744831    85.385628    97.270798    11.174792    17.704977    -107.195602    -4.982942    -13.566825    2.656373    -2.362374    8.450000    3.424036    4.447360    23.460835    -22.393517    29.523771    0.179600    -19.040071    4.057006    10.504272    1.690277    -34.799046    37.193352    -35.948662    22.016855    2.848589    -74.751709    -22.564650    16.053764    18.562529    2.305506    16.641859    -5.047247    40.026596    31.365770    26.510183    -15.902222    -6.599143    47.690662    -5.316103    0.473524    -0.073368    16.099396    -17.301121    2.915833    0.211226    28.527857    5.481425    -1.165832    -14.749376    -12.625537    2.821831    0.658187    -3.124077    -6.681786    -35.144699    -3.464576    21.578709    48.348602    -16.848843    22.561058    21.470772    -15.308227    -1.321714    1.822752    1.426015    
-10.713129    85.521660    97.275398    11.185948    18.209478    -107.005562    -4.920259    -13.434875    2.541319    -1.842062    8.389762    3.256342    4.691176    23.686558    -22.447586    29.544321    0.445389    -19.135937    4.371760    10.221400    1.282040    -34.121117    36.887058    -36.857548    22.688848    1.502532    -76.799553    -22.476894    15.965284    18.473232    2.309588    16.556608    -4.928971    39.604706    31.298550    26.687988    -15.693973    -6.243088    46.541759    -5.543419    0.542522    0.050424    16.616547    -17.145805    3.053831    0.238860    28.283325    5.361640    -1.217504    -14.558714    -12.806011    2.863555    0.655949    -3.170278    -7.742538    -35.975395    -4.685038    22.262852    49.989407    -17.167360    22.448055    21.406294    -14.930853    -1.362029    2.127726    1.468918    
-10.680394    85.665787    97.276016    11.204783    18.752512    -106.816246    -4.845715    -13.296340    2.417262    -1.292673    8.327358    3.076543    4.937721    23.923666    -22.500748    29.566118    0.704040    -19.227016    4.691612    9.908233    0.868808    -33.481815    36.547173    -37.733440    23.335232    0.087729    -78.836060    -22.179811    15.907709    18.261547    2.320178    16.466688    -4.807012    39.170895    31.181917    26.858101    -15.462018    -5.873486    45.380886    -5.811816    0.619307    0.174042    17.173237    -16.991142    3.193926    0.274327    28.035645    5.258486    -1.283432    -14.357976    -13.008835    2.905040    0.651793    -3.216226    -8.885690    -36.806896    -5.924904    23.030594    51.666004    -17.595930    22.259129    21.262613    -14.602257    -1.384710    2.350680    1.492939    
-10.646727    85.817116    97.273026    11.231744    19.333538    -106.627197    -4.757045    -13.151372    2.285863    -0.715425    8.263583    2.886259    5.186564    24.170832    -22.554655    29.589706    0.951930    -19.314116    5.015232    9.565194    0.452510    -32.894375    36.157455    -38.574554    23.937752    -1.375551    -80.858017    -21.656504    15.884110    17.923756    2.336778    16.371756    -4.682161    38.727638    31.016312    27.016354    -15.207501    -5.497941    44.210011    -6.129013    0.697446    0.299092    17.769417    -16.840227    3.336232    0.316540    27.788380    5.171161    -1.361658    -14.148142    -13.233211    2.946380    0.645692    -3.262026    -10.115141    -37.632118    -7.168506    23.899277    53.356037    -18.159576    22.001741    21.054586    -14.313499    -1.390651    2.498848    1.499052    
-10.612367    85.973755    97.266853    11.267185    19.947954    -106.439384    -4.653225    -13.000966    2.149585    -0.115308    8.199287    2.688387    5.437461    24.425316    -22.610958    29.614735    1.182683    -19.397337    5.339521    9.197024    0.036891    -32.375252    35.705326    -39.374283    24.477049    -2.856912    -82.852005    -20.891411    15.896814    17.458666    2.359788    16.272322    -4.556703    38.278122    30.804773    27.158997    -14.933687    -5.127897    43.038040    -6.498290    0.768697    0.426332    18.400751    -16.697435    3.481387    0.365396    27.547062    5.095203    -1.449191    -13.931839    -13.474306    2.987461    0.638396    -3.307547    -11.426769    -38.439590    -8.398811    24.875978    55.027042    -18.870562    21.687490    20.798523    -14.056177    -1.381576    2.581580    1.489108    
